<?xml version="1.0" encoding="iso-8859-1"?>
<!-- Generator: Adobe Illustrator 19.0.0, SVG Export Plug-In . SVG Version: 6.00 Build 0)  -->
<svg version="1.1" id="Layer_1" xmlns="http://www.w3.org/2000/svg" xmlns:xlink="http://www.w3.org/1999/xlink" x="0px" y="0px"
	 viewBox="0 0 511.998 511.998" style="enable-background:new 0 0 511.998 511.998;" xml:space="preserve">
<g>
	<g>
		<g>
			<rect y="247.468" width="170.667" height="34.133"/>
			<rect x="51.2" y="162.134" width="68.267" height="17.067"/>
			<path d="M145.067,110.934H25.6c-14.114,0-25.6,11.486-25.6,25.6v93.867h170.667v-93.867
				C170.667,122.42,159.181,110.934,145.067,110.934z M136.533,187.734c0,4.719-3.823,8.533-8.533,8.533H42.667
				c-4.71,0-8.533-3.814-8.533-8.533v-34.133c0-4.719,3.823-8.533,8.533-8.533H128c4.71,0,8.533,3.814,8.533,8.533V187.734z"/>
			<path d="M0,375.468c0,14.114,11.486,25.6,25.6,25.6h119.467c14.114,0,25.6-11.486,25.6-25.6v-76.8H0V375.468z M119.467,341.334
				c4.71,0,8.533,3.814,8.533,8.533c0,4.719-3.823,8.533-8.533,8.533s-8.533-3.814-8.533-8.533
				C110.933,345.149,114.756,341.334,119.467,341.334z M51.2,341.334c4.71,0,8.533,3.814,8.533,8.533
				c0,4.719-3.823,8.533-8.533,8.533s-8.533-3.814-8.533-8.533C42.667,345.149,46.49,341.334,51.2,341.334z"/>
			<path d="M204.797,324.264c0,14.123,11.486,25.6,25.6,25.6h60.86l-15.061,22.596c-3.772,5.658-4.122,12.902-0.913,18.893
				c3.209,5.99,9.421,9.711,16.222,9.711h133.888c6.775,0,12.979-3.712,16.179-9.685c3.2-5.99,2.85-13.201-0.913-18.842
				l-15.113-22.673h60.851c14.123,0,25.6-11.477,25.6-25.6v-8.533h-307.2V324.264z M405.031,349.864l21.427,32.137
				c0.102,0.162,0.427,0.64,0.06,1.314c-0.358,0.683-0.939,0.683-1.126,0.683H291.504c-0.196,0-0.802,0-1.178-0.708
				c-0.375-0.7-0.043-1.195,0.068-1.365l21.376-32.06H405.031z"/>
			<path d="M486.398,110.931h-256c-14.114,0-25.6,11.486-25.6,25.6v162.133h307.2V136.531
				C511.998,122.417,500.512,110.931,486.398,110.931z M322.558,242.353c2.833,3.763,2.065,9.114-1.707,11.938
				c-1.536,1.152-3.328,1.707-5.111,1.707c-2.594,0-5.154-1.169-6.835-3.413l-25.6-34.133c-2.278-3.029-2.278-7.202,0-10.231
				l25.6-34.133c2.825-3.78,8.175-4.531,11.947-1.707c3.772,2.825,4.54,8.175,1.707,11.938l-21.76,29.013L322.558,242.353z
				 M383.392,173.83l-34.133,85.333c-1.34,3.345-4.54,5.367-7.927,5.367c-1.058,0-2.125-0.188-3.166-0.606
				c-4.378-1.749-6.511-6.716-4.762-11.093l34.133-85.333c1.758-4.378,6.707-6.511,11.102-4.753
				C383.008,164.495,385.142,169.461,383.392,173.83z M433.492,218.451l-25.6,34.133c-1.673,2.244-4.241,3.413-6.835,3.413
				c-1.775,0-3.576-0.555-5.112-1.707c-3.772-2.825-4.531-8.175-1.707-11.938l21.76-29.022l-21.76-29.013
				c-2.824-3.763-2.065-9.114,1.707-11.938c3.789-2.825,9.131-2.074,11.947,1.707l25.6,34.133
				C435.77,211.249,435.77,215.421,433.492,218.451z"/>
		</g>
	</g>
</g>
<g>
</g>
<g>
</g>
<g>
</g>
<g>
</g>
<g>
</g>
<g>
</g>
<g>
</g>
<g>
</g>
<g>
</g>
<g>
</g>
<g>
</g>
<g>
</g>
<g>
</g>
<g>
</g>
<g>
</g>
</svg>
