<svg id="Capa_1" enable-background="new 0 0 437.276 437.276" height="512" viewBox="0 0 437.276 437.276" width="512" xmlns="http://www.w3.org/2000/svg"><g><g><path d="m406.96 118.885c0-.997 0-1.996 0-2.993-.031-25.955-21.097-46.967-47.051-46.937-9.247.012-18.286 2.751-25.984 7.876-21.637-14.383-50.837-8.5-65.22 13.137-5.107 7.683-7.842 16.698-7.865 25.924v2.943c-23.054 6.56-36.426 30.569-29.865 53.623 6.56 23.054 30.569 36.426 53.623 29.865 5.475-1.558 10.591-4.178 15.055-7.711 16.659 12.438 39.515 12.438 56.174 0 17.578 19.057 47.277 20.255 66.334 2.677s20.255-47.277 2.677-66.334c-4.942-5.356-11.062-9.489-17.878-12.07z" fill="#7fb6ba"/><path d="m396.234 122.477c0-.997 0-1.996 0-2.993-.072-25.927-21.147-46.885-47.073-46.815-9.143.025-18.079 2.72-25.712 7.752-21.553-14.409-50.706-8.619-65.117 12.935-5.169 7.732-7.926 16.826-7.918 26.128-.05.981-.05 1.963 0 2.943-23.079 6.475-36.54 30.433-30.065 53.513s30.433 36.54 53.513 30.065c5.555-1.558 10.745-4.21 15.265-7.798 16.659 12.438 39.515 12.438 56.172 0 17.684 18.959 47.389 19.992 66.349 2.309s19.992-47.389 2.308-66.349c-4.917-5.27-10.98-9.34-17.722-11.889z" fill="#89c5cd"/><path d="m419.782 262.709c-38.728 91.972-144.681 135.134-236.652 96.405s-135.135-144.681-96.407-236.652c19.553-46.434 57.605-82.595 104.974-99.759-38.681 92.021 4.56 197.976 96.581 236.657 41.859 17.594 88.804 18.789 131.504 3.349z" fill="#e1e6e9"/><path d="m188.306 319.929c0-.997 0-1.996 0-2.993 0-25.927-21.017-46.944-46.944-46.944-9.296-.029-18.384 2.734-26.091 7.931-21.59-14.355-50.728-8.489-65.083 13.101-5.105 7.679-7.836 16.69-7.852 25.91-.05.981-.05 1.963 0 2.943-23.088 6.542-36.501 30.564-29.959 53.652 5.287 18.655 22.293 31.55 41.682 31.605 9.814.013 19.337-3.332 26.988-9.479 16.669 12.463 39.554 12.463 56.222 0 17.547 19.086 47.244 20.334 66.33 2.789 19.086-17.547 20.335-47.244 2.789-66.33-4.987-5.423-11.181-9.598-18.082-12.185z" fill="#7fb6ba"/><path d="m177.58 323.72c0-.997 0-1.996 0-2.993-.065-25.981-21.179-46.991-47.16-46.926-9.225.024-18.24 2.758-25.924 7.865-21.659-14.299-50.809-8.334-65.109 13.325-5.043 7.638-7.745 16.582-7.776 25.736v2.943c-23.067 6.517-36.482 30.501-29.965 53.567 6.517 23.067 30.501 36.482 53.567 29.965 5.516-1.558 10.669-4.194 15.159-7.755 16.635 12.472 39.477 12.573 56.222.25 17.71 18.935 47.417 19.926 66.352 2.216s19.926-47.417 2.216-66.352c-4.909-5.25-10.96-9.302-17.682-11.842h.1z" fill="#89c5cd"/></g></g></svg>