<?xml version="1.0" encoding="iso-8859-1"?>
<!-- Generator: Adobe Illustrator 19.0.0, SVG Export Plug-In . SVG Version: 6.00 Build 0)  -->
<svg version="1.1" id="Capa_1" xmlns="http://www.w3.org/2000/svg" xmlns:xlink="http://www.w3.org/1999/xlink" x="0px" y="0px"
	 viewBox="0 0 472.001 472.001" style="enable-background:new 0 0 472.001 472.001;" xml:space="preserve">
<g>
	<path style="fill:#1598FC;" d="M342.261,440.001c-2.867,0.009-5.519-1.517-6.952-4l-32-56c-2.282-3.783-1.065-8.7,2.718-10.982
		s8.7-1.065,10.982,2.718c0.065,0.108,0.128,0.218,0.188,0.329l32,56c2.19,3.835,0.858,8.72-2.976,10.912
		C345.013,439.66,343.648,440.013,342.261,440.001L342.261,440.001z"/>
	<path style="fill:#1598FC;" d="M318.261,472.001c-2.867,0.009-5.519-1.517-6.952-4l-32-56c-2.282-3.783-1.065-8.7,2.718-10.982
		s8.7-1.065,10.982,2.718c0.065,0.108,0.128,0.218,0.188,0.329l32,56c2.19,3.835,0.858,8.72-2.976,10.912
		C321.013,471.66,319.648,472.013,318.261,472.001L318.261,472.001z"/>
	<path style="fill:#1598FC;" d="M262.261,440.001c-2.867,0.009-5.519-1.517-6.952-4l-32-56c-2.101-3.887-0.653-8.741,3.234-10.842
		c3.757-2.031,8.448-0.752,10.654,2.906l32,56c2.19,3.835,0.858,8.72-2.976,10.912C265.013,439.66,263.648,440.013,262.261,440.001
		L262.261,440.001z"/>
	<path style="fill:#1598FC;" d="M238.261,472.001c-2.867,0.009-5.519-1.517-6.952-4l-32-56c-2.101-3.887-0.653-8.741,3.234-10.842
		c3.757-2.031,8.448-0.752,10.654,2.906l32,56c2.19,3.835,0.858,8.72-2.976,10.912C241.013,471.66,239.648,472.013,238.261,472.001
		L238.261,472.001z"/>
	<path style="fill:#1598FC;" d="M182.261,440.001c-2.867,0.009-5.519-1.517-6.952-4l-32-56c-2.101-3.887-0.653-8.741,3.234-10.842
		c3.757-2.031,8.448-0.752,10.654,2.906l32,56c2.19,3.835,0.858,8.72-2.976,10.912C185.013,439.66,183.648,440.013,182.261,440.001
		L182.261,440.001z"/>
	<path style="fill:#1598FC;" d="M158.261,472.001c-2.867,0.009-5.519-1.517-6.952-4l-32-56c-2.101-3.887-0.653-8.741,3.234-10.842
		c3.757-2.031,8.448-0.752,10.654,2.906l32,56c2.19,3.835,0.858,8.72-2.976,10.912C161.013,471.66,159.648,472.013,158.261,472.001
		L158.261,472.001z"/>
	<path style="fill:#1598FC;" d="M102.261,440.001c-2.867,0.009-5.519-1.517-6.952-4l-32-56c-2.101-3.887-0.653-8.741,3.234-10.842
		c3.757-2.031,8.448-0.752,10.654,2.906l32,56c2.19,3.835,0.858,8.72-2.976,10.912C105.013,439.66,103.648,440.013,102.261,440.001
		L102.261,440.001z"/>
</g>
<path style="fill:#FFD33F;" d="M446.261,280.001c-66.273,0.415-120.334-52.974-120.748-119.247
	C325.098,94.481,378.486,40.42,444.759,40.006c7.031-0.044,14.052,0.53,20.982,1.715C400.416-17.787,299.22-13.072,239.712,52.252
	s-54.793,166.521,10.531,226.029c61.063,55.627,154.435,55.627,215.498,0C459.305,279.382,452.79,279.958,446.261,280.001z"/>
<path style="fill:#505968;" d="M318.261,264.001c0.107-35.24-28.374-63.894-63.614-64.001c-5.737-0.017-11.451,0.739-16.986,2.249
	c-20.803-43.865-73.227-62.561-117.092-41.758c-28.335,13.438-47.365,40.952-49.94,72.206c-2.768-0.443-5.565-0.676-8.368-0.696
	c-30.928,0-56,25.072-56,56s25.072,56,56,56h256c22.091,0,40-17.909,40-40S340.352,264.001,318.261,264.001z"/>
<g>
</g>
<g>
</g>
<g>
</g>
<g>
</g>
<g>
</g>
<g>
</g>
<g>
</g>
<g>
</g>
<g>
</g>
<g>
</g>
<g>
</g>
<g>
</g>
<g>
</g>
<g>
</g>
<g>
</g>
</svg>
